#!OML:ASF X:\für Bonn\!DataBase\2005_08_10_Bjorn_Final\c3d\bjorn.ASF
:FULLY-SPECIFIED
:DEGREES
49
root 0.0547814 19.2785 3.44294 -176.257 1.65147 179.99
lowerback -15.0414 1.60118 0.799525
upperback 5.89531 2.55318 -2.72815
thorax 15.3498 1.50608 -2.80864
lowerneck 1.76365 -8.72065 4.77641
upperneck 20.3298 -15.1886 2.24846
head 5.79153 -7.75879 -0.79825
rclavicle -7.95139e-015 1.74931e-014
rhumerus -1204.65 -161.972 1239.64
rradius 29.773
rwrist 28.4567
rhand -25.6303 16.7129
rfingers 7.12502
rthumb 0.902841 -13.2649
lclavicle -7.95139e-015 1.74931e-014
lhumerus -649.457 20.1353 -700.383
lradius 23.0565
lwrist -53.8422
lhand -32.0994 2.45624
lfingers 7.12502
lthumb -5.34467 32.3688
rfemur -14.462 -9.18196 13.3807
rtibia 27.9466
rfoot -13.2245 13.203
rtoes -17.3457
lfemur -12.7072 2.93353 -16.8163
ltibia 28.0342
lfoot -13.3954 -6.20229
ltoes -2.51092
50
root 0.0593798 19.2773 3.38884 -176.086 1.75472 180.009
lowerback -15.3111 1.52758 0.61366
upperback 5.67641 2.45544 -2.64132
thorax 15.2336 1.42454 -2.62883
lowerneck 2.85818 -9.00602 4.7508
upperneck 19.9967 -15.6587 2.52985
head 5.53468 -8.04534 -0.644531
rclavicle 1.13307e-014 -3.33958e-014
rhumerus -1205.8 -159.995 1241.4
rradius 30.117
rwrist 27.9698
rhand -25.7 16.7419
rfingers 7.12502
rthumb 0.835458 -13.2362
lclavicle 1.13307e-014 -3.33958e-014
lhumerus -651.351 21.99 -703.125
lradius 23.325
lwrist -54.0756
lhand -32.1468 3.1979
lfingers 7.12502
lthumb -5.39047 33.1093
rfemur -14.5088 -9.26642 13.4053
rtibia 27.9864
rfoot -13.3001 13.441
rtoes -17.4315
lfemur -12.6681 2.96749 -16.788
ltibia 27.986
lfoot -13.5075 -6.13203
ltoes -2.48319
51
root 0.0635577 19.2785 3.3341 -175.913 1.8571 180.029
lowerback -15.5928 1.45115 0.398257
upperback 5.47976 2.35505 -2.50146
thorax 15.1483 1.33655 -2.37314
lowerneck 4.0208 -9.28102 4.62101
upperneck 19.5939 -16.1013 2.84597
head 5.25912 -8.32709 -0.453373
rclavicle -1.15295e-014 -4.77083e-015
rhumerus -1206.95 -157.858 1243.03
rradius 30.3179
rwrist 27.6711
rhand -25.5324 16.7382
rfingers 7.12502
rthumb 0.997397 -13.2392
lclavicle -1.15295e-014 -4.77083e-015
lhumerus -653.032 23.9803 -704.787
lradius 23.495
lwrist -54.9486
lhand -32.1635 3.567
lfingers 7.12502
lthumb -5.40657 33.478
rfemur -14.5561 -9.28845 13.4239
rtibia 28.0182
rfoot -13.3574 13.6136
rtoes -17.5596
lfemur -12.6286 2.9873 -16.7634
ltibia 27.9207
lfoot -13.6418 -6.06908
ltoes -2.59889
52
root 0.0675478 19.2784 3.2812 -175.729 1.93569 180.045
lowerback -15.8755 1.36133 0.180658
upperback 5.31165 2.2398 -2.34814
thorax 15.0981 1.24288 -2.10568
lowerneck 5.15333 -9.53524 4.45592
upperneck 19.1674 -16.5065 3.16349
head 4.98799 -8.59147 -0.253355
rclavicle -1.77912e-014 1.11319e-014
rhumerus -1208.11 -155.621 1244.61
rradius 30.3445
rwrist 27.5071
rhand -25.7455 16.377
rfingers 7.12502
rthumb 0.791526 -13.6013
lclavicle -1.77912e-014 1.11319e-014
lhumerus -654.589 26.1343 -705.829
lradius 23.5916
lwrist -56.0784
lhand -32.5685 4.33903
lfingers 7.12502
lthumb -5.79761 34.2397
rfemur -14.6166 -9.42678 13.4473
rtibia 28.0413
rfoot -13.4034 13.8721
rtoes -17.6401
lfemur -12.6027 2.99978 -16.7418
ltibia 27.8405
lfoot -13.7174 -6.02103
ltoes -2.51736
53
root 0.0721522 19.2794 3.22694 -175.525 2.025 180.061
lowerback -16.2066 1.28228 -0.0266195
upperback 5.17442 2.1431 -2.19966
thorax 15.1181 1.16109 -1.84399
lowerneck 6.45248 -9.79899 4.44057
upperneck 18.1674 -16.8416 3.36645
head 5.0626 -8.84838 -0.0620351
rclavicle -6.65929e-015 -1.66979e-014
rhumerus -1209.45 -153.37 1246.26
rradius 30.2285
rwrist 27.7102
rhand -26.0822 15.5336
rfingers 7.12502
rthumb 0.466341 -14.4457
lclavicle -6.65929e-015 -1.66979e-014
lhumerus -656.07 28.42 -706.614
lradius 23.6217
lwrist -57.1351
lhand -33.202 5.38471
lfingers 7.12502
lthumb -6.40922 35.2677
rfemur -14.6908 -9.45706 13.4693
rtibia 28.0581
rfoot -13.4506 14.0331
rtoes -17.6521
lfemur -12.5789 3.03877 -16.7147
ltibia 27.7404
lfoot -13.8243 -5.99127
ltoes -2.50625
54
root 0.0759599 19.2801 3.17376 -175.364 2.11937 180.06
lowerback -16.5005 1.21285 -0.197731
upperback 5.09357 2.06171 -2.07565
thorax 15.1871 1.09409 -1.62679
lowerneck 7.38185 -10.0203 4.27575
upperneck 17.8037 -17.1998 3.6896
head 4.81161 -9.07961 0.141924
rclavicle -1.39149e-014 1.11319e-014
rhumerus -1210.75 -150.928 1247.66
rradius 29.9625
rwrist 28.0646
rhand -26.2437 14.8643
rfingers 7.12502
rthumb 0.310419 -15.1152
lclavicle -1.39149e-014 1.11319e-014
lhumerus -657.267 30.9426 -706.807
lradius 23.532
lwrist -58.4351
lhand -33.807 6.06864
lfingers 7.12502
lthumb -6.99327 35.9331
rfemur -14.7267 -9.5848 13.4607
rtibia 28.0766
rfoot -13.4874 14.3185
rtoes -17.7447
lfemur -12.5113 3.09894 -16.7136
ltibia 27.6287
lfoot -13.9024 -5.97302
ltoes -2.51106
55
root 0.079774 19.2815 3.12057 -175.182 2.18645 180.076
lowerback -16.8412 1.1365 -0.346551
upperback 5.06193 1.97045 -1.94856
thorax 15.3458 1.0255 -1.42134
lowerneck 8.23459 -10.2204 4.13998
upperneck 17.4575 -17.5271 3.99852
head 4.58316 -9.29082 0.331813
rclavicle -9.74045e-015 -3.97569e-015
rhumerus -1212.22 -148.513 1249.16
rradius 29.6459
rwrist 27.8784
rhand -26.4135 14.0505
rfingers 7.12502
rthumb 0.146385 -15.9292
lclavicle -9.74045e-015 -3.97569e-015
lhumerus -658.467 33.608 -706.958
lradius 23.4098
lwrist -59.6765
lhand -34.244 6.65917
lfingers 7.12502
lthumb -7.41508 36.5092
rfemur -14.7829 -9.70812 13.4831
rtibia 28.092
rfoot -13.5197 14.5441
rtoes -17.8552
lfemur -12.4576 3.11545 -16.688
ltibia 27.5073
lfoot -13.9886 -5.9486
ltoes -2.32538
